PathFileType	4	(X/Y/Z)	./resultDataOpenSim/trcMotMarkerGrf/sub09/qtm-04-08.trc
DataRate	CameraRate	NumFrames	NumMarkers	Units	OrigDataRate	OrigDataStartFrame	OrigNumFrames
250.000000	250.000000	8	24	m	250.000000	187	498
Frame#	Time	L.Toe.Tip			R.Toe.Tip			L.Ankle.Lat			R.Ankle.Lat			L.Ankle.Med			R.Ankle.Med			L.Heel			R.Heel			L.Knee.Lat			R.Knee.Lat			L.Knee.Med			R.Knee.Med			L.Thigh.Upper			R.Thigh.Upper			L.ASIS			R.ASIS			V.Sacral			L.Acromium			R.Acromium			C7			L.Elbow			R.Elbow			L.Wrist.Lat			R.Wrist.Lat
		X1	Y1	Z1	X2	Y2	Z2	X3	Y3	Z3	X4	Y4	Z4	X5	Y5	Z5	X6	Y6	Z6	X7	Y7	Z7	X8	Y8	Z8	X9	Y9	Z9	X10	Y10	Z10	X11	Y11	Z11	X12	Y12	Z12	X13	Y13	Z13	X14	Y14	Z14	X15	Y15	Z15	X16	Y16	Z16	X17	Y17	Z17	X18	Y18	Z18	X19	Y19	Z19	X20	Y20	Z20	X21	Y21	Z21	X22	Y22	Z22	X23	Y23	Z23	X24	Y24	Z24

187	0.744	0.16046382	-0.034025521	0.034562899	-0.61568325	0.06067135	0.11044395	0.015386672	-0.0024974825	-0.018595053	-0.66719141	0.20345408	0.1466345	0.027963459	0.016017889	0.078108996	-0.61291908	0.19967023	0.064101509	-0.059372411	-0.037413368	0.019610274	-0.70744125	0.24346915	0.082518739	0.053310075	0.40703079	-0.075352944	-0.26304489	0.39912301	0.23400996	0.051101603	0.41151488	0.050572689	-0.2487095	0.36849407	0.10809875	-0.12776063	0.78868183	-0.12752962	-0.20284997	0.78508077	0.24103174	-0.065649421	0.87527546	-0.0554945	-0.086159062	0.86503214	0.18602425	-0.24258227	0.92355897	0.046344126	-0.09465376	1.3195711	-0.11454968	-0.12015434	1.3348611	0.21758607	-0.17471271	1.3795055	0.048733927	-0.26133779	0.99645897	-0.16695547	-0.25184833	0.98266171	0.30128709	-0.19699204	0.74776672	-0.21272206	-0.037472534	0.80681683	0.28883752
188	0.748	0.16054832	-0.03409785	0.034605188	-0.61005613	0.062860553	0.11169863	0.015637201	-0.0025900408	-0.018641616	-0.65593162	0.20822123	0.14793099	0.028245483	0.015930172	0.078154579	-0.60229265	0.2032711	0.065358266	-0.059303157	-0.03726492	0.01962083	-0.69580727	0.24981043	0.084437731	0.056556987	0.40604952	-0.076058512	-0.25093641	0.39777855	0.23488008	0.054614747	0.40990902	0.049799804	-0.23600315	0.36700945	0.10891327	-0.12141338	0.78882253	-0.12780138	-0.19420389	0.78441851	0.23963707	-0.058880885	0.87607702	-0.056165802	-0.079645143	0.86502665	0.18546933	-0.23560382	0.92413991	0.046643185	-0.087103137	1.3197869	-0.11460708	-0.11281756	1.3352634	0.21744558	-0.16753316	1.3799408	0.048469939	-0.25288159	0.99610401	-0.16733655	-0.24541071	0.9838139	0.30064918	-0.18774539	0.74753376	-0.21251064	-0.034752456	0.80409563	0.28942796
189	0.752	0.16059197	-0.034152192	0.034610346	-0.60366401	0.065219439	0.1130591	0.0158626	-0.0026959588	-0.018761722	-0.64449759	0.21269265	0.14912992	0.028433377	0.015886073	0.078110069	-0.59143414	0.20687262	0.066447878	-0.059271607	-0.037140654	0.019547027	-0.68373017	0.25588583	0.086324083	0.059694559	0.40519621	-0.076546961	-0.23862497	0.39654735	0.23559655	0.05755306	0.40864366	0.049059485	-0.22320174	0.36582697	0.10959636	-0.11506132	0.78912687	-0.1280336	-0.1858778	0.783982	0.23833979	-0.051924556	0.87694791	-0.05686081	-0.073272836	0.86518289	0.184988	-0.22867695	0.92477618	0.047182479	-0.079587303	1.3201216	-0.11465183	-0.10561385	1.3357913	0.21732861	-0.16033792	1.3805527	0.048196409	-0.24446385	0.99584055	-0.16775565	-0.23878616	0.98501727	0.30008	-0.1784151	0.74740924	-0.21222856	-0.03204923	0.80152288	0.29004401
190	0.756	0.1605959	-0.034197059	0.034589231	-0.59633935	0.067798415	0.11453308	0.016048462	-0.0028263919	-0.018913785	-0.63293455	0.21688496	0.15024848	0.028528672	0.015880697	0.078003485	-0.58023729	0.21044508	0.067366408	-0.059285016	-0.037045203	0.019412209	-0.67115688	0.261625	0.08806264	0.062608569	0.40451634	-0.076740568	-0.22606891	0.3954679	0.2360968	0.06019131	0.40783919	0.048470114	-0.21032643	0.36494516	0.11010362	-0.10870143	0.78965876	-0.12824451	-0.17847612	0.78380253	0.23753908	-0.044854362	0.87786971	-0.057528182	-0.067049769	0.86550357	0.18458549	-0.22203557	0.92545981	0.047533002	-0.072116376	1.3205825	-0.114687	-0.098540572	1.3364463	0.21723241	-0.1531299	1.38133	0.047917058	-0.23609243	0.99567384	-0.16820043	-0.23213419	0.98626274	0.29958573	-0.16898316	0.74741564	-0.21185569	-0.029374031	0.79909021	0.29067697
191	0.76	0.16057944	-0.034236346	0.034552058	-0.58797951	0.070612806	0.11614198	0.016194832	-0.0029565894	-0.019059328	-0.62120189	0.22086212	0.15130598	0.028581825	0.015904504	0.077877069	-0.56865745	0.21399759	0.068226745	-0.05932399	-0.036962994	0.019268433	-0.65823787	0.26706344	0.089594956	0.065185296	0.4040205	-0.076625441	-0.21328577	0.39456085	0.23638805	0.062599453	0.40746556	0.048041639	-0.19742266	0.36440275	0.11038352	-0.10229899	0.79045923	-0.12845332	-0.17200085	0.78383053	0.23727737	-0.037856476	0.87881203	-0.058065804	-0.060975595	0.86598207	0.18426814	-0.21598591	0.92627547	0.046957285	-0.064688673	1.3211663	-0.11470987	-0.091582277	1.3372232	0.21715421	-0.14592499	1.3822441	0.047646228	-0.2277764	0.99561291	-0.16866687	-0.22564246	0.98756376	0.29917201	-0.15944902	0.74756338	-0.2113914	-0.026741217	0.79679807	0.29131395
192	0.764	0.16056335	-0.034271182	0.034508105	-0.57850697	0.073663587	0.11794445	0.016308357	-0.0030522583	-0.019172846	-0.60923613	0.22470527	0.15232442	0.028648454	0.015946087	0.077765639	-0.55669682	0.2175639	0.069114808	-0.059361829	-0.0368725	0.01916176	-0.64518051	0.27221084	0.090882972	0.067478814	0.40372356	-0.076373821	-0.20032339	0.39383996	0.23651219	0.064722639	0.40739308	0.047718869	-0.18461691	0.36426097	0.11042445	-0.095853453	0.79155065	-0.12866545	-0.1660445	0.78400192	0.23733267	-0.031135172	0.87975404	-0.058382947	-0.055035711	0.86661112	0.18404199	-0.21053547	0.92724644	0.045261751	-0.057303639	1.3218671	-0.11471751	-0.084717192	1.3381159	0.21708761	-0.13874382	1.3832658	0.047390348	-0.2195106	0.99567424	-0.16910834	-0.21944062	0.98895092	0.29884386	-0.14982218	0.74785303	-0.2108531	-0.02416936	0.79465942	0.29194658
193	0.768	0.16055883	-0.034301699	0.03446111	-0.56788425	0.076939383	0.12002557	0.016396938	-0.003094982	-0.019243441	-0.59699251	0.22849758	0.15331069	0.028758319	0.015994755	0.077685473	-0.54444556	0.22119026	0.069921377	-0.05938415	-0.036759576	0.019111702	-0.63211913	0.27697532	0.091880893	0.069757078	0.4036563	-0.076356773	-0.18721102	0.39333172	0.2364921	0.066555397	0.40748454	0.04747026	-0.17207414	0.36456971	0.1103197	-0.089435944	0.79292646	-0.12886933	-0.16023679	0.78429911	0.23747915	-0.024750439	0.88071338	-0.058480576	-0.049213073	0.86738794	0.18390281	-0.20529592	0.92832821	0.043091992	-0.049958352	1.3226837	-0.11470356	-0.077933242	1.3391226	0.21702296	-0.13160297	1.3843747	0.047143582	-0.21128747	0.99587145	-0.16949437	-0.21347841	0.99044568	0.29858948	-0.14009939	0.74828729	-0.21025906	-0.021669852	0.79269738	0.29257484
194	0.772	0.16056544	-0.03432749	0.034410929	-0.55620945	0.080383497	0.12243251	0.016464865	-0.003086083	-0.019275251	-0.58444932	0.23231307	0.15422286	0.028905104	0.016043918	0.077637288	-0.53201817	0.22487517	0.070454736	-0.059393975	-0.036622657	0.01911333	-0.61909101	0.28123376	0.092546965	0.072262918	0.40380495	-0.076823324	-0.1739508	0.39307919	0.23632301	0.068221711	0.40765013	0.047327403	-0.15983785	0.36533022	0.11023688	-0.083146658	0.7945381	-0.12905656	-0.15441788	0.78473755	0.23759866	-0.01859481	0.88174025	-0.058435104	-0.043491448	0.86831519	0.18383646	-0.19982477	0.9295266	0.041246868	-0.042638172	1.3236175	-0.11465773	-0.0712465	1.3402469	0.21695332	-0.12451489	1.3855618	0.046905783	-0.20310999	0.99620499	-0.1698391	-0.20751859	0.99204392	0.29837151	-0.13026873	0.74887532	-0.20961213	-0.019229698	0.79093963	0.29320524
